<svg width="158" height="39" viewBox="0 0 158 39" fill="none" xmlns="http://www.w3.org/2000/svg">
<path d="M107.315 10.5029C105.533 11.718 103.485 12.385 101.47 13.0633C96.9555 14.5856 92.2037 14.546 87.6946 16.04C85.5208 16.7608 83.8845 18.3922 82.3492 19.9641C81.8426 20.4824 78.7481 25.1556 80.543 25.2562C82.3253 25.3553 82.0966 25.858 83.2642 24.313C83.9182 23.4478 84.6619 22.557 85.4745 21.8362C87.181 20.3224 90.5561 19.9429 91.9623 19.9754C94.6624 20.0377 98.3785 20.5405 100.339 22.4848C101.213 23.3515 101.949 24.541 102.472 25.6626C103.812 28.5345 101.895 35.9819 99.4774 35.2753C99.0437 35.1478 98.1722 34.7386 97.8073 35.1931C97.4958 35.5812 98.2129 36.2184 98.4753 36.3898C99.3679 36.9704 100.404 36.8571 101.354 36.7396C102.751 36.5654 103.728 35.1577 104.361 34.0333C104.657 33.5065 105.095 30.9122 105.786 31.2223C107.319 31.9134 107.427 29.5598 107.436 28.3986C107.444 27.2387 106.897 26.3013 106.178 25.4049C105.672 24.7733 105.118 24.1742 104.48 23.6729C104.079 23.3571 103.115 22.8799 103.094 22.2625C103.05 21.0758 105.12 22.9521 105.383 23.0824C106.566 23.6644 107.58 23.0456 106.917 21.8036C106.338 20.7217 105.623 19.7049 104.574 19.0422C100.454 16.4422 94.8687 18.344 90.4144 18.3936C89.6565 18.4021 89.6846 17.5326 90.1674 17.1856C90.5912 16.8812 91.2171 16.8713 91.7069 16.7679C92.8633 16.5215 93.9803 16.5965 95.1634 16.5441C97.3863 16.4478 99.6528 17.1729 101.828 17.0483C103.783 16.9364 106.226 17.0851 107.406 14.9935C108.027 13.8931 106.531 14.1027 106.458 13.4173C106.407 12.9387 108.226 12.3538 108.542 12.1032C110.275 10.7253 111.194 8.64072 110.31 6.49671C110.06 5.8906 109.521 4.0114 108.545 4.31303C108.112 4.44615 106.24 4.83134 107.408 5.58472C109.424 6.88472 109.234 9.19585 107.317 10.5015L107.315 10.5029Z" fill="#FFC646"/>
<path d="M48.6458 12.0522C49.3755 12.688 50.1713 12.7956 51.0063 13.2035C51.6925 13.5391 49.5453 14.1594 49.4443 14.2443C48.6219 14.9382 50.7368 16.3133 51.2027 16.588C52.1683 17.1545 54.8627 17.1927 56.7096 16.833C57.9333 16.5951 59.1739 16.5923 60.4145 16.5583C61.7814 16.5201 65.9059 15.9465 66.724 17.5298C67.385 18.8085 64.8604 18.2067 64.5783 18.1514C63.5286 17.9447 62.2417 17.7124 61.1021 17.7238C58.4764 17.7238 55.8451 17.6742 53.3836 18.7859C52.7914 19.0535 48.7931 21.8206 50.0393 22.768C50.995 23.4945 51.9339 22.1478 52.7787 22.278C53.7962 22.4352 52.0181 23.8924 51.8272 24.0779C50.5642 25.3057 48.6739 28.2838 49.7123 30.1659C49.9299 30.561 49.9299 31.4602 50.3733 31.6755C50.7607 31.8624 51.0989 31.3526 51.4652 31.531C51.7514 31.6698 52.1598 33.5079 52.4082 33.8861C53.2643 35.1875 56.1538 37.1516 57.6512 35.6435C58.656 34.6324 56.1244 34.7456 55.7033 34.4794C54.7869 33.9002 54.1288 32.7574 53.8074 31.7463C53.1324 29.6221 53.5562 27.0348 54.6157 25.0933C56.958 20.7954 62.9518 19.0776 67.4089 20.2147C69.8858 20.8463 71.9642 22.084 73.5557 24.1233C74.2616 25.0268 74.385 25.8538 75.6832 25.4601C77.0739 25.0395 77.2606 24.5863 76.6164 23.2863C74.4664 18.9445 70.7447 16.5102 66.2932 15.1025C64.1446 14.4228 61.7912 14.3321 59.5682 14.1424C56.5327 13.8832 51.1129 11.4107 50.327 10.8414C49.4387 10.1971 48.5826 9.32896 48.4072 8.18756C48.2318 7.049 49.2394 6.65673 49.3236 5.74191C49.4064 4.83134 47.8248 5.65269 47.5862 5.87361C45.6229 7.69475 46.9056 10.5426 48.6416 12.055L48.6458 12.0522Z" fill="#FFC646"/>
<path d="M63.5594 10.5086C64.3341 9.98322 65.1929 9.45358 66.1697 9.54422C70.3054 9.9294 72.9031 13.811 75.3997 16.7084C75.8459 17.2267 76.4326 17.7563 77.1258 17.8923C77.6577 17.9971 78.1769 17.6374 78.7243 17.6912C80.0308 17.8187 80.5992 17.9234 81.5633 16.8741C83.187 15.1068 84.4136 13.0746 86.1678 11.4008C87.8083 9.83311 90.1884 8.65489 92.431 9.5513C93.019 9.78638 93.6884 11.1883 94.2175 11.1813C95.1255 11.1699 94.7845 9.40402 94.5992 8.99051C94.0828 7.83353 92.7243 7.31664 91.6535 6.92154C90.8494 6.62557 89.9934 6.99802 89.2047 6.95978C87.7059 6.88756 87.8209 7.56164 87.101 6.13701C86.419 4.78886 85.1742 5.90901 84.3111 6.50379C82.7688 7.5673 82.4334 10.6913 81.597 12.7588C81.371 13.3168 79.9522 14.7074 79.8063 13.3154C79.7207 12.4954 80.5879 11.5325 80.9177 10.8371C81.423 9.7708 82.4811 8.46229 82.6214 7.28266C82.7141 6.50803 82.7211 4.63025 82.2257 3.98874C81.9127 3.5809 80.8013 4.24931 80.8153 3.65737C80.8378 2.68449 80.6413 2.07413 79.9017 1.27119C78.9979 0.289814 78.6232 -0.684479 77.5286 0.655178C76.9195 1.40006 75.4207 2.53579 76.3385 3.54266C77.0669 4.34136 75.6495 3.84005 75.4306 3.80465C74.6012 3.67153 74.3865 5.51391 74.3191 6.04213C74.0005 8.53452 76.5448 10.8159 77.3251 13.001C77.7573 14.2118 75.9751 14.1027 75.6551 12.9769C75.3421 11.8723 74.9618 10.8471 74.545 9.78071C74.1745 8.83332 73.543 7.62395 72.7599 6.93146C72.1298 6.3735 71.2976 5.90193 70.5693 5.57622C69.6655 5.17404 69.8016 6.7247 69.4017 7.00793C68.8712 7.38462 67.3682 6.71762 66.6749 6.82808C65.6168 6.82808 64.8351 6.7247 63.9973 7.46817C63.2549 8.12667 62.121 9.07548 62.1785 10.1716C62.2571 11.6882 62.8844 10.9703 63.5594 10.5114V10.5086Z" fill="#FFC646"/>
<path d="M38.0812 32.6894C38.1233 31.718 37.9872 33.236 38.0812 32.6894V32.6894Z" fill="#FFC646"/>
<path d="M23.9773 23.3062C24.3366 24.2167 24.8628 24.8016 25.6248 25.4374C26.0487 25.79 27.9348 26.3537 27.243 27.0377C26.3181 27.9511 26.0641 28.4694 27.5713 28.7823C30.1016 29.3077 32.0579 28.8163 34.0212 27.1467C34.3931 26.8309 35.8063 25.1924 36.3621 25.9628C36.8083 26.5802 35.1973 27.4568 34.8591 27.6211C34.0325 28.0233 33.3069 28.6152 32.9729 29.5031C32.6361 30.3967 34.8183 30.4095 35.3165 30.4208C36.2273 30.4406 37.0609 29.5697 37.7163 29.0259C38.244 28.5869 39.0748 27.8264 39.4509 27.2642C40.0487 26.3721 40.5918 25.6881 41.3777 24.946C41.7973 24.5495 42.1678 25.2448 42.0359 25.5932C41.8577 26.0634 41.3033 26.4797 40.9707 26.8309C39.3793 28.5133 38.185 30.2962 38.0798 32.6908C37.9254 33.583 38.7141 34.7626 39.4607 35.1974C39.848 35.4226 41.424 35.7185 40.7336 34.7825C39.3933 32.9656 40.2438 30.7168 41.4479 29.1222C42.979 27.0957 44.6153 25.4856 46.6642 24.017C47.6255 23.3274 48.4704 22.921 49.0808 21.8999C49.4513 21.2797 50.6807 19.8296 50.7228 19.1824C50.7705 18.4587 48.4002 19.4968 48.0915 19.6086C46.9547 20.0179 45.8559 20.5249 44.7178 20.9327C42.1987 21.8376 39.6698 22.7765 37.0792 23.452C33.0992 24.4886 28.1874 26.2347 24.6664 22.9337C23.8692 22.1874 23.5717 22.2823 23.9759 23.3062H23.9773Z" fill="#FFC646"/>
<path d="M106.574 19.7517C106.976 20.5815 107.708 21.1848 107.962 22.1265C108.174 22.9111 109.551 23.3713 110.21 23.714C111.201 24.2281 111.949 25.0735 112.7 25.8793C114.016 27.2926 115.761 28.5529 116.52 30.4562C116.918 31.456 117.285 32.3283 116.857 33.4003C116.714 33.7572 115.316 35.3107 116.461 35.3546C118.496 35.4325 119.473 32.9075 119.015 31.2266C118.427 29.067 117.024 27.1906 115.368 25.698C115.265 25.6059 114.644 24.8908 115.277 24.905C115.804 24.9163 116.344 25.5422 116.719 25.8453C117.686 26.6256 118.433 27.5857 119.306 28.4679C119.93 29.0981 120.912 30.4675 121.93 30.3925C122.493 30.3514 124.492 30.7281 124.487 29.7566C124.481 28.754 123.058 28.2796 122.357 27.8958C122.131 27.7726 120.164 25.909 121.374 26.229C123.485 26.787 124.836 29.4281 127.317 29.2298C127.702 29.2695 130.259 28.6322 130.419 28.264C130.66 27.7089 129.552 26.3508 130.175 26.1441C130.789 25.9402 134.539 22.9493 133.223 22.693C132.674 22.5853 131.727 23.8429 131.226 24.0808C130.133 24.6019 128.835 25.0098 127.615 24.8908C126.495 24.7818 125.443 24.803 124.318 24.6543C123.088 24.49 121.837 24.0709 120.649 23.7211C116.534 22.5117 112.324 21.6365 108.467 19.7262C108.204 19.5959 106.114 18.7986 106.574 19.7503V19.7517Z" fill="#FFC646"/>
<path d="M123.874 30.9023C121.009 30.6035 125.205 33.4527 125.802 33.8039C132.844 37.9433 140.787 40.066 148.889 38.4658C151.074 38.0339 153.113 37.2947 155.172 36.4082C156.117 36.0017 157.086 35.5004 157.814 34.7541C158.39 34.165 157.475 34.107 157.152 33.9512C155.736 33.27 155.393 33.6581 154.106 34.4837C153.207 35.0614 152.26 35.5684 151.255 35.9338C149.654 36.5186 147.203 37.6742 145.464 37.4462C145.175 37.4462 143.835 37.3018 144.759 36.9109C145.539 36.5809 146.83 35.9479 147.3 35.2016C147.787 34.4298 145.904 34.6083 146.335 33.9016C146.74 33.2375 146.83 32.2504 146.702 31.5027C146.556 30.6403 146.22 29.6872 145.212 29.6207C143.877 29.5315 144.715 30.7564 144.725 31.4362C144.754 33.3253 143.08 34.9212 141.296 35.2229C137.322 35.8927 132.551 34.8986 128.92 33.1369C127.26 32.3311 125.74 31.0977 123.871 30.9023H123.874Z" fill="#FFC646"/>
<path d="M11.2768 36.8642C9.64043 37.1587 6.84351 36.2142 5.41206 35.4296C4.55321 34.9595 3.71539 34.6876 2.94214 34.0447C2.17448 33.4074 1.71559 33.0604 0.733231 33.5802C-1.31992 34.6663 1.47 35.8729 2.63058 36.4238C4.51251 37.3173 6.52214 37.9192 8.56125 38.32C10.6958 38.7391 12.951 38.6315 15.1136 38.8198C16.7443 38.9615 18.6571 38.5989 20.2345 38.201C23.5296 37.3683 26.8079 35.9904 29.7381 34.2642C30.9001 33.5788 32.1 32.9627 33.2887 32.3255C33.6213 32.147 34.9292 31.2308 33.6662 31.1883C31.5794 31.1161 30.1662 32.2306 28.3165 32.9684C24.4923 34.4922 17.7884 35.482 16.8818 35.5231C15.0013 35.7412 12.8514 34.6309 11.949 32.9656C11.4129 31.9757 11.5434 31.5863 11.9799 30.6445C12.4191 29.7 11.2305 29.8359 10.773 30.1192C9.77376 30.7366 9.7892 31.6896 9.93375 32.7701C10.0699 33.7869 10.5035 33.896 9.79341 34.7046C9.18434 35.3985 11.8578 36.7608 11.2768 36.8656V36.8642Z" fill="#FFC646"/>
<path d="M74.9618 30.5638C74.6404 31.701 74.2461 32.8409 73.3718 33.675C71.7551 35.2186 68.4305 35.9593 66.9359 33.692C66.6539 33.263 66.4013 30.2806 67.2082 30.8485C68.1793 31.5324 68.5933 32.3396 69.7258 31.2549C70.5496 30.4661 70.7124 29.4054 70.3756 28.3547C70.1019 27.4965 68.7912 26.7403 67.7836 26.7034C64.7804 26.6468 63.1188 29.7 63.0893 31.8482C63.0556 34.3151 64.7804 37.0511 67.1829 37.7889C69.963 38.6428 72.7291 38.6981 74.9225 36.4238C75.9133 35.3971 76.6529 34.2755 77.2746 32.9911C77.5889 32.3425 78.4366 30.173 77.9131 29.5385C77.0992 28.5557 75.2341 29.5881 74.959 30.5624L74.9618 30.5638Z" fill="#FFC646"/>
<path d="M89.1303 26.6879C86.0387 26.6879 85.1629 31.735 88.437 31.6811C89.7913 31.6585 90.3737 30.0441 90.5561 32.0578C90.6642 33.2545 89.5766 34.1749 88.6054 34.6281C86.0779 35.8077 83.6347 34.6253 82.3422 32.1994C81.8117 31.2053 82.0615 29.7807 80.8686 29.3176C79.5186 28.7922 79.0653 29.632 79.2968 30.8584C79.8231 33.6396 80.957 36.0216 83.5547 37.3726C85.7538 38.5154 88.1381 38.5281 90.3007 37.2451C92.5475 35.9125 93.6814 33.2984 93.4232 30.8017C93.2183 28.8064 91.2999 26.4641 89.1289 26.6879H89.1303Z" fill="#FFC646"/>
<path d="M23.7836 24.9786C24.0446 24.7634 22.9514 22.6859 22.7858 22.38C22.0406 21.0007 22.0785 18.5848 23.2742 17.4972C23.7121 17.0993 24.4095 16.969 24.9723 17.0993C25.6052 17.2451 25.8817 18.1925 26.4795 18.2138C27.1208 18.2364 27.3384 17.3287 27.9194 17.1984C28.8175 16.9973 29.1796 16.8996 29.5136 15.8913C30.1199 14.0588 28.4456 13.1568 27.118 12.6441C25.6164 12.0635 23.3416 12.9599 22.3999 13.719C21.2547 14.6423 20.4436 16.5484 20.3959 18.1684C20.1966 19.9315 21.1327 22.0047 22.1136 23.4025C22.2918 23.6559 23.2967 25.3808 23.785 24.9772L23.7836 24.9786Z" fill="#FFC646"/>
<path d="M133.598 24.9786C133.337 24.7634 134.43 22.6859 134.595 22.38C135.341 21.0007 135.303 18.5848 134.107 17.4972C133.669 17.0993 132.972 16.969 132.409 17.0993C131.776 17.2451 131.5 18.1925 130.902 18.2138C130.26 18.2364 130.043 17.3287 129.462 17.1984C128.564 16.9973 128.202 16.8996 127.868 15.8913C127.261 14.0588 128.936 13.1568 130.263 12.6441C131.765 12.0635 134.04 12.9599 134.981 13.719C136.126 14.6423 136.938 16.5484 136.985 18.1684C137.185 19.9315 136.249 22.0047 135.268 23.4025C135.089 23.6559 134.085 25.3808 133.596 24.9772L133.598 24.9786Z" fill="#FFC646"/>
<path d="M83.6122 28.3207C82.7477 24.7506 72.7501 25.5238 73.2694 28.4467C73.3957 30.391 74.4426 29.0075 75.5106 28.5501C76.5841 28.0898 77.8458 28.0304 78.9993 28.0304C80.0224 28.0304 81.1563 28.1592 82.0376 28.7313C82.679 29.1477 84.0164 29.9832 83.6122 28.3207Z" fill="#FFC646"/>
<path d="M78.6008 19.0507C76.7974 19.062 76.6866 21.9481 78.532 21.941C80.3396 21.9339 80.3999 19.0394 78.6008 19.0507Z" fill="#FFC646"/>
</svg>
